<svg width="24" height="24" viewBox="0 0 24 24" fill="none" xmlns="http://www.w3.org/2000/svg">
<g clip-path="url(#clip0_877_13004)">
<path fill-rule="evenodd" clip-rule="evenodd" d="M3.19922 11.1578C3.19922 6.76284 6.76211 3.19995 11.1571 3.19995C15.5521 3.19995 19.115 6.76284 19.115 11.1578C19.115 15.5529 15.5521 19.1157 11.1571 19.1157C6.76211 19.1157 3.19922 15.5529 3.19922 11.1578ZM11.1571 4.79995C7.64576 4.79995 4.79922 7.6465 4.79922 11.1578C4.79922 14.6692 7.64576 17.5157 11.1571 17.5157C14.6685 17.5157 17.515 14.6692 17.515 11.1578C17.515 7.6465 14.6685 4.79995 11.1571 4.79995Z" fill="black"/>
<path fill-rule="evenodd" clip-rule="evenodd" d="M20.4327 21.5657L15.959 17.0921L17.0904 15.9607L21.564 20.4344L20.4327 21.5657Z" fill="black"/>
</g>
<defs>
<clipPath id="clip0_877_13004">
<rect width="24" height="24" fill="white"/>
</clipPath>
</defs>
</svg>
