<svg width="119" height="22" viewBox="0 0 119 22" fill="none" xmlns="http://www.w3.org/2000/svg">
<path d="M117.009 4.31812H106.232V6.45049H110.339V17.6819H112.902V6.45049H117.009V4.31812Z" fill="black"/>
<path d="M100.395 4.31801H94.9395V17.6832H97.5024V13.1405H100.135C102.995 13.1405 105.336 11.6172 105.336 8.68224C105.336 6.02664 103.423 4.31665 100.395 4.31665V4.31801ZM100.101 11.0081H97.5024V6.45039H100.101C101.764 6.45039 102.831 7.2284 102.831 8.72856C102.831 10.0843 101.782 11.0067 100.101 11.0067V11.0081Z" fill="black"/>
<path d="M85.1167 15.5496V12.0669H91.3353V9.93452H85.1167V6.45049H92.206V4.31812H82.5537V17.6833H92.3218V15.5496H85.1167Z" fill="black"/>
<path d="M44.6323 3.96118C40.4288 3.96118 37.5184 6.99693 37.5184 10.9919C37.5184 14.9869 40.4302 18.0403 44.6323 18.0403C48.8343 18.0403 51.7284 14.9869 51.7284 10.9919C51.7284 6.99693 48.8698 3.96118 44.6323 3.96118ZM44.6323 15.6641C42.0625 15.6641 40.1986 13.6925 40.1986 10.9742C40.1986 8.25592 42.0639 6.33746 44.6323 6.33746C47.2007 6.33746 49.0496 8.24365 49.0496 10.9742C49.0496 13.7047 47.2334 15.6641 44.6323 15.6641Z" fill="black"/>
<path d="M63.0029 13.2114L55.915 4.31812H53.9338V17.6833H56.4382V8.77772L63.5357 17.6833H65.5073V4.31812H63.0029V13.2114Z" fill="black"/>
<path d="M21.1788 4.31809H18.4782L14.828 12.3285L10.9338 3.78125L7.03831 12.3285L3.38806 4.31809H0.6875L7.02196 18.2188L10.9338 9.63746L14.8443 18.2188L21.1788 4.31809Z" fill="black"/>
<path d="M31.0501 6.33746C32.7083 6.33746 33.7888 6.98875 34.4769 7.85124L36.2183 6.1249C35.0574 4.75827 33.3624 3.96118 31.0488 3.96118C26.8453 3.96118 23.9349 6.99693 23.9349 10.9919C23.9349 14.9869 26.8453 18.0403 31.0488 18.0403C33.8052 18.0403 35.5929 16.7623 36.706 14.9705L34.8257 13.5603C34.1213 14.8057 32.8582 15.6641 31.0474 15.6641C28.4777 15.6641 26.6137 13.6925 26.6137 10.9742C26.6137 8.25592 28.479 6.33746 31.0474 6.33746H31.0501Z" fill="black"/>
<path d="M74.8272 6.33746C76.4854 6.33746 77.5659 6.98875 78.254 7.85124L79.9954 6.1249C78.8345 4.75827 77.1395 3.96118 74.8259 3.96118C70.6224 3.96118 67.712 6.99693 67.712 10.9919C67.712 14.9869 70.6224 18.0403 74.8259 18.0403C77.5823 18.0403 79.37 16.7623 80.4831 14.9705L78.6028 13.5603C77.8984 14.8057 76.6353 15.6641 74.8245 15.6641C72.2548 15.6641 70.3908 13.6925 70.3908 10.9742C70.3908 8.25592 72.2561 6.33746 74.8245 6.33746H74.8272Z" fill="black"/>
</svg>
